<svg xmlns="http://www.w3.org/2000/svg" viewBox="0 0 640 760" width="640" height="760" role="img"><defs><linearGradient id="shade" x1="0" y1="0" x2="0" y2="1"><stop offset="0" stop-color="#000" stop-opacity="0"/><stop offset="1" stop-color="#000" stop-opacity=".16"/></linearGradient></defs><rect width="640" height="760" fill="#EEF2F5"/>
<g stroke="#1F5C87" stroke-opacity="0.07" stroke-width="1"><line x1="40" y1="0" x2="40" y2="760"/><line x1="80" y1="0" x2="80" y2="760"/><line x1="120" y1="0" x2="120" y2="760"/><line x1="160" y1="0" x2="160" y2="760"/><line x1="200" y1="0" x2="200" y2="760"/><line x1="240" y1="0" x2="240" y2="760"/><line x1="280" y1="0" x2="280" y2="760"/><line x1="320" y1="0" x2="320" y2="760"/><line x1="360" y1="0" x2="360" y2="760"/><line x1="400" y1="0" x2="400" y2="760"/><line x1="440" y1="0" x2="440" y2="760"/><line x1="480" y1="0" x2="480" y2="760"/><line x1="520" y1="0" x2="520" y2="760"/><line x1="560" y1="0" x2="560" y2="760"/><line x1="600" y1="0" x2="600" y2="760"/><line x1="0" y1="40" x2="640" y2="40"/><line x1="0" y1="80" x2="640" y2="80"/><line x1="0" y1="120" x2="640" y2="120"/><line x1="0" y1="160" x2="640" y2="160"/><line x1="0" y1="200" x2="640" y2="200"/><line x1="0" y1="240" x2="640" y2="240"/><line x1="0" y1="280" x2="640" y2="280"/><line x1="0" y1="320" x2="640" y2="320"/><line x1="0" y1="360" x2="640" y2="360"/><line x1="0" y1="400" x2="640" y2="400"/><line x1="0" y1="440" x2="640" y2="440"/><line x1="0" y1="480" x2="640" y2="480"/><line x1="0" y1="520" x2="640" y2="520"/><line x1="0" y1="560" x2="640" y2="560"/><line x1="0" y1="600" x2="640" y2="600"/><line x1="0" y1="640" x2="640" y2="640"/><line x1="0" y1="680" x2="640" y2="680"/><line x1="0" y1="720" x2="640" y2="720"/></g>
<rect y="600" width="640" height="160" fill="#1F5C87" fill-opacity=".1"/>
<g transform="translate(60,170)">
  <g transform="translate(0,0)"><rect width="130" height="86" rx="6" fill="#FFFFFF" stroke="#CBDEEA" stroke-width="3"/><rect x="8" y="8" width="114" height="30" rx="4" fill="#fff" fill-opacity=".7"/></g><g transform="translate(140,0)"><rect width="130" height="86" rx="6" fill="#E8EEF3" stroke="#CBDEEA" stroke-width="3"/><rect x="8" y="8" width="114" height="30" rx="4" fill="#fff" fill-opacity=".7"/></g><g transform="translate(280,0)"><rect width="130" height="86" rx="6" fill="#D6E2EA" stroke="#CBDEEA" stroke-width="3"/><rect x="8" y="8" width="114" height="30" rx="4" fill="#fff" fill-opacity=".7"/></g><g transform="translate(420,0)"><rect width="130" height="86" rx="6" fill="#FFFFFF" stroke="#CBDEEA" stroke-width="3"/><rect x="8" y="8" width="114" height="30" rx="4" fill="#fff" fill-opacity=".7"/></g><g transform="translate(-50,96)"><rect width="130" height="86" rx="6" fill="#E8EEF3" stroke="#CBDEEA" stroke-width="3"/><rect x="8" y="8" width="114" height="30" rx="4" fill="#fff" fill-opacity=".7"/></g><g transform="translate(90,96)"><rect width="130" height="86" rx="6" fill="#D6E2EA" stroke="#CBDEEA" stroke-width="3"/><rect x="8" y="8" width="114" height="30" rx="4" fill="#fff" fill-opacity=".7"/></g><g transform="translate(230,96)"><rect width="130" height="86" rx="6" fill="#FFFFFF" stroke="#CBDEEA" stroke-width="3"/><rect x="8" y="8" width="114" height="30" rx="4" fill="#fff" fill-opacity=".7"/></g><g transform="translate(0,192)"><rect width="130" height="86" rx="6" fill="#D6E2EA" stroke="#CBDEEA" stroke-width="3"/><rect x="8" y="8" width="114" height="30" rx="4" fill="#fff" fill-opacity=".7"/></g><g transform="translate(140,192)"><rect width="130" height="86" rx="6" fill="#FFFFFF" stroke="#CBDEEA" stroke-width="3"/><rect x="8" y="8" width="114" height="30" rx="4" fill="#fff" fill-opacity=".7"/></g><g transform="translate(280,192)"><rect width="130" height="86" rx="6" fill="#E8EEF3" stroke="#CBDEEA" stroke-width="3"/><rect x="8" y="8" width="114" height="30" rx="4" fill="#fff" fill-opacity=".7"/></g><g transform="translate(420,192)"><rect width="130" height="86" rx="6" fill="#D6E2EA" stroke="#CBDEEA" stroke-width="3"/><rect x="8" y="8" width="114" height="30" rx="4" fill="#fff" fill-opacity=".7"/></g><g transform="translate(-50,288)"><rect width="130" height="86" rx="6" fill="#FFFFFF" stroke="#CBDEEA" stroke-width="3"/><rect x="8" y="8" width="114" height="30" rx="4" fill="#fff" fill-opacity=".7"/></g><g transform="translate(90,288)"><rect width="130" height="86" rx="6" fill="#E8EEF3" stroke="#CBDEEA" stroke-width="3"/><rect x="8" y="8" width="114" height="30" rx="4" fill="#fff" fill-opacity=".7"/></g><g transform="translate(230,288)"><rect width="130" height="86" rx="6" fill="#D6E2EA" stroke="#CBDEEA" stroke-width="3"/><rect x="8" y="8" width="114" height="30" rx="4" fill="#fff" fill-opacity=".7"/></g><g transform="translate(0,384)"><rect width="130" height="86" rx="6" fill="#E8EEF3" stroke="#CBDEEA" stroke-width="3"/><rect x="8" y="8" width="114" height="30" rx="4" fill="#fff" fill-opacity=".7"/></g><g transform="translate(140,384)"><rect width="130" height="86" rx="6" fill="#D6E2EA" stroke="#CBDEEA" stroke-width="3"/><rect x="8" y="8" width="114" height="30" rx="4" fill="#fff" fill-opacity=".7"/></g><g transform="translate(280,384)"><rect width="130" height="86" rx="6" fill="#FFFFFF" stroke="#CBDEEA" stroke-width="3"/><rect x="8" y="8" width="114" height="30" rx="4" fill="#fff" fill-opacity=".7"/></g><g transform="translate(420,384)"><rect width="130" height="86" rx="6" fill="#E8EEF3" stroke="#CBDEEA" stroke-width="3"/><rect x="8" y="8" width="114" height="30" rx="4" fill="#fff" fill-opacity=".7"/></g><g transform="translate(-50,480)"><rect width="130" height="86" rx="6" fill="#D6E2EA" stroke="#CBDEEA" stroke-width="3"/><rect x="8" y="8" width="114" height="30" rx="4" fill="#fff" fill-opacity=".7"/></g><g transform="translate(90,480)"><rect width="130" height="86" rx="6" fill="#FFFFFF" stroke="#CBDEEA" stroke-width="3"/><rect x="8" y="8" width="114" height="30" rx="4" fill="#fff" fill-opacity=".7"/></g><g transform="translate(230,480)"><rect width="130" height="86" rx="6" fill="#E8EEF3" stroke="#CBDEEA" stroke-width="3"/><rect x="8" y="8" width="114" height="30" rx="4" fill="#fff" fill-opacity=".7"/></g>
</g><rect width="640" height="760" fill="url(#shade)"/></svg>